<svg height="22" viewBox="0 0 22 22" width="22" xmlns="http://www.w3.org/2000/svg"><g fill="none" transform="translate(.021442)"><path d="m19.305784 5.38022356-2.7290601-2.72906007-5.0817038 5.12425381 2.7295626 2.7293951z" fill="#e1e1e1"/><path d="m9.04990559 12.1071363c-.22095822.5305343.31175377 1.0625762.84195295.8409479l3.26679766-1.6899367-2.4203216-2.4203216z" fill="#e9e9e9"/><path d="m21.7686556 2.917352c.2512792-.25127924.2512792-.65851914 0-.90979838l-1.8192617-1.81909419c-.2512792-.25127924-.6585191-.25127924-.9097984 0l-1.5530732 1.55307323 2.7288925 2.72906008z" fill="#ddd"/><path d="m1.92982456 18.0545809h.64327486v3.2592593c0 .2599902.15646322.4950201.39702117.5941916.2370401.099004.51529001.0462354.70106911-.1393762l3.7140747-3.7140747h7.4958272c1.0640838 0 1.9298246-.8657407 1.9298246-1.9298246v-6.38701568l-2.0291636 2.02916358c-.1770681.1772357-.3837872.3166119-.6156342.4139407l-3.6830836 1.9097222c-.3348714.1445694-.58615065.1954953-.8424555.1954953-.19147475 0-.37608125-.0368543-.5544895-.0911306h-4.58316582c-.3556439 0-.64327486-.2877985-.64327486-.6432749 0-.3556439.28763096-.6432748.64327486-.6432748h3.25741653c-.12697975-.421144-.07253593-.8772996.10252193-1.2959308l1.98510602-3.85529366c.05645405-.14255906.19599774-.34994821.37256334-.52634623l2.0417276-2.04172758h-10.33243484c-1.06408382 0-1.92982456.86574074-1.92982456 1.92982456v9.00584791c0 1.0640839.86574074 1.9298246 1.92982456 1.9298246z" fill="#fff"/></g></svg>