<?xml version="1.0" encoding="UTF-8"?>
<svg width="9px" height="18px" viewBox="0 0 9 18" version="1.1" xmlns="http://www.w3.org/2000/svg" xmlns:xlink="http://www.w3.org/1999/xlink">
    <!-- Generator: Sketch 53.2 (72643) - https://sketchapp.com -->
    <title>Facebook</title>
    <g id="Symbols" stroke="none" stroke-width="1" fill="none" fill-rule="evenodd">
        <g id="Footer" transform="translate(-466.000000, -104.000000)" fill="#FFFFFF">
            <g id="Group-3" transform="translate(437.000000, 50.000000)">
                <path d="M34.4006577,59.3911306 L34.4006577,57.9456593 C34.4006577,57.2524885 34.8468758,57.0864979 35.169856,57.0864979 C35.4827971,57.0864979 37.1343924,57.0864979 37.1343924,57.0864979 L37.1343924,54 L34.4293902,54 C31.4204473,54 30.7464469,56.2853977 30.7464469,57.7700513 L30.7464469,59.3911306 L29,59.3911306 L29,62.9951913 L30.7654865,62.9951913 C30.7654865,67.0872499 30.7654865,72 30.7654865,72 L34.2680732,72 C34.2680732,72 34.2680732,67.018859 34.2680732,62.9951913 L36.8591842,62.9951913 L36.9730754,61.5789286 L37.1818182,59.3911306 L34.4006577,59.3911306" id="Fill-40"></path>
            </g>
        </g>
    </g>
</svg>
