<svg height="20" viewBox="0 0 20 20" width="20" xmlns="http://www.w3.org/2000/svg"><g fill="none"><path d="m14.5861816 0h-9.17236324c-2.98522949 0-5.41381836 2.42858887-5.41381836 5.41381836v9.17251584c0 2.9850769 2.42858887 5.4136658 5.41381836 5.4136658h9.17251584c2.9850769 0 5.4136658-2.4285889 5.4136658-5.4136658v-9.17251584c0-2.98522949-2.4285889-5.41381836-5.4138184-5.41381836zm-4.5861816 15.4685974c-3.01544187 0-5.46859742-2.4531555-5.46859742-5.4685974 0-3.01544188 2.45315555-5.46859742 5.46859742-5.46859742 3.0154419 0 5.4685974 2.45315554 5.4685974 5.46859742 0 3.0154419-2.4531555 5.4685974-5.4685974 5.4685974zm5.5993652-9.64752197c-.8911132 0-1.6159057-.72479246-1.6159057-1.61590574s.7247925-1.61605836 1.6159057-1.61605836c.8911133 0 1.6160584.72494508 1.6160584 1.61605836s-.7249451 1.61590574-1.6160584 1.61590574z" fill="#fff"/><path d="m10 5.70388793c-2.36877441 0-4.29611207 1.92718508-4.29611207 4.29611207 0 2.3687744 1.92733766 4.2961121 4.29611207 4.2961121 2.368927 0 4.2961121-1.9273377 4.2961121-4.2961121 0-2.36892699-1.9271851-4.29611207-4.2961121-4.29611207z" fill="#ebebeb"/></g></svg>