<?xml version="1.0" encoding="UTF-8"?>
<svg width="21px" height="20px" viewBox="0 0 21 20" version="1.1" xmlns="http://www.w3.org/2000/svg" xmlns:xlink="http://www.w3.org/1999/xlink">
    <!-- Generator: Sketch 53.2 (72643) - https://sketchapp.com -->
    <title>Linkedin</title>
    <g id="Symbols" stroke="none" stroke-width="1" fill="none" fill-rule="evenodd">
        <g id="Footer" transform="translate(-568.000000, -104.000000)" fill="#FFFFFF">
            <g id="Group-3" transform="translate(437.000000, 50.000000)">
                <g id="Group-5" transform="translate(131.791141, 54.000000)">
                    <path d="M2.33355728,-4.4408921e-15 C1.04405413,-4.4408921e-15 3.8191672e-14,1.04395393 3.8191672e-14,2.33333333 C3.8191672e-14,3.62271273 1.04405413,4.66666667 2.33355728,4.66666667 C3.62306043,4.66666667 4.66666667,3.62271273 4.66666667,2.33333333 C4.66666667,1.04395393 3.62306043,-4.4408921e-15 2.33355728,-4.4408921e-15 Z" id="Path"></path>
                    <path d="M19.8899873,10.7636559 C19.5832039,8.23647833 18.4312009,6.66666667 15.0221485,6.66666667 C13.023137,6.66666667 11.6743633,7.40258578 11.1104364,8.47000403 L11.0491691,8.47000403 L11.0491691,6.66666667 L7.33333333,6.66666667 L7.33333333,20 L11.2208963,20 L11.2208963,13.3888069 C11.2208963,11.6463115 11.5639034,9.96644746 13.6984183,9.96644746 C15.8432189,9.96644746 16.0024243,11.9532054 16.0024243,13.5109381 L16.0024243,20 L20,20 L20,12.6770456 C20,11.9898895 19.9628819,11.3523912 19.8899873,10.7636559 Z" id="Path"></path>
                    <polygon id="Path" points="3.8191672e-14 10.2116047 3.8191672e-14 20 4.66666667 20 4.66666667 6.66666667 3.8191672e-14 6.66666667"></polygon>
                </g>
            </g>
        </g>
    </g>
</svg>
