<svg height="20" viewBox="0 0 21 20" width="21" xmlns="http://www.w3.org/2000/svg"><g fill="#fff" fill-rule="evenodd" transform="translate(.791141)"><path d="m2.33355728 0c-1.28950315 0-2.33355728 1.04395393-2.33355728 2.33333333s1.04405413 2.33333334 2.33355728 2.33333334 2.33310939-1.04395394 2.33310939-2.33333334-1.04360624-2.33333333-2.33310939-2.33333333z"/><path d="m19.8899873 10.7636559c-.3067834-2.52717757-1.4587864-4.09698923-4.8678388-4.09698923-1.9990115 0-3.3477852.73591911-3.9117121 1.80333736h-.0612673v-1.80333736h-3.71583577v13.33333333h3.88756297v-6.6111931c0-1.7424954.3430071-3.42235944 2.477522-3.42235944 2.1448006 0 2.304006 1.98675794 2.304006 3.54449064v6.4890619h3.9975757v-7.3229544c0-.6871561-.0371181-1.3246544-.1100127-1.9133897z"/><path d="m0 10.2116047v9.7883953h4.66666667v-13.33333333h-4.66666667z"/></g></svg>