<svg height="18" viewBox="0 0 22 18" width="22" xmlns="http://www.w3.org/2000/svg"><path d="m94.764051 58.0693021c-.7927006.3433023-1.6552692.5796461-2.5657104.697818.9337305-.5554942 1.6427619-1.4072807 1.9748509-2.4479697-.8634312.5084842-1.8329583.8750759-2.8499267 1.0760543-.8052078-.8629999-1.9748509-1.3952047-3.2756044-1.3952047-2.4596144 0-4.4702618 1.9748509-4.4702618 4.3986687 0 .354947.0595172.6861733.1302478 1.005755-3.7245713-.1776892-7.0243275-1.9278409-9.2238775-4.6005097-.3782363.6624527-.6145801 1.4077119-.6145801 2.2116259 0 1.5370973.8039139 2.885292 1.9860642 3.6659166-.732752-.0120759-1.4189253-.2130544-2.0214295-.5442808v.059086c0 .5675701.1065272 1.0881303.3070744 1.5845385.5442808 1.3839914 1.7859483 2.4242491 3.2881116 2.7201102-.3911749.1065272-.7694112.1651818-1.1830129.1651818-.2837851 0-.5675701-.0353653-.8401418-.0944512.5800774 1.7501517 2.2232706 3.0271845 4.1752634 3.0746258-1.5379599 1.1825816-3.4532935 1.8803996-5.5463162 1.8803996-.367023 0-.7094627-.0241519-1.0760544-.0595172 1.9864955 1.2420988 4.3395827 1.9748508 6.8587144 1.9748508 6.9885309 0 11.3048243-4.8364222 12.4274573-9.8621783.2018411-.8983652.2958611-1.785517.2958611-2.6605929 0-.1893338 0-.389881 0-.5675701.8634311-.6266561 1.6324111-1.4072807 2.2232706-2.2823566" fill="#fff" fill-rule="evenodd" transform="translate(-73 -56)"/></svg>